<svg xmlns="http://www.w3.org/2000/svg" width="24" height="28"><path d="M15.391 15.219c.266 0 2.812 1.328 2.922 1.516.031.078.031.172.031.234 0 .391-.125.828-.266 1.188-.359.875-1.813 1.437-2.703 1.437-.75 0-2.297-.656-2.969-.969-2.234-1.016-3.625-2.75-4.969-4.734-.594-.875-1.125-1.953-1.109-3.031v-.125c.031-1.031.406-1.766 1.156-2.469.234-.219.484-.344.812-.344.187 0 .375.047.578.047.422 0 .5.125.656.531.109.266.906 2.391.906 2.547 0 .594-1.078 1.266-1.078 1.625 0 .078.031.156.078.234.344.734 1 1.578 1.594 2.141.719.688 1.484 1.141 2.359 1.578a.681.681 0 0 0 .344.109c.469 0 1.25-1.516 1.656-1.516zM12.219 23.5c5.406 0 9.812-4.406 9.812-9.812s-4.406-9.812-9.812-9.812-9.812 4.406-9.812 9.812c0 2.063.656 4.078 1.875 5.75l-1.234 3.641 3.781-1.203a9.875 9.875 0 0 0 5.391 1.625zm0-21.594C18.719 1.906 24 7.187 24 13.687s-5.281 11.781-11.781 11.781c-1.984 0-3.953-.5-5.703-1.469L0 26.093l2.125-6.328a11.728 11.728 0 0 1-1.687-6.078c0-6.5 5.281-11.781 11.781-11.781z"/></svg>