<?xml version="1.0" encoding="utf-8"?><svg width="524" height="692" viewBox="0 0 524 692" xmlns="http://www.w3.org/2000/svg" xmlns:xlink="http://www.w3.org/1999/xlink"><svg width="28" height="28" viewBox="0 0 28 28" id="envelope" xmlns="http://www.w3.org/2000/svg"><path d="M28 11.094V23.5c0 1.375-1.125 2.5-2.5 2.5h-23A2.507 2.507 0 0 1 0 23.5V11.094c.469.516 1 .969 1.578 1.359 2.594 1.766 5.219 3.531 7.766 5.391 1.313.969 2.938 2.156 4.641 2.156h.031c1.703 0 3.328-1.188 4.641-2.156 2.547-1.844 5.172-3.625 7.781-5.391a9.278 9.278 0 0 0 1.563-1.359zM28 6.5c0 1.75-1.297 3.328-2.672 4.281-2.438 1.687-4.891 3.375-7.313 5.078-1.016.703-2.734 2.141-4 2.141h-.031c-1.266 0-2.984-1.437-4-2.141-2.422-1.703-4.875-3.391-7.297-5.078-1.109-.75-2.688-2.516-2.688-3.938 0-1.531.828-2.844 2.5-2.844h23c1.359 0 2.5 1.125 2.5 2.5z"/></svg><svg width="16" height="28" viewBox="0 0 16 28" id="facebook" y="28" xmlns="http://www.w3.org/2000/svg"><path d="M14.984.187v4.125h-2.453c-1.922 0-2.281.922-2.281 2.25v2.953h4.578l-.609 4.625H10.25v11.859H5.469V14.14H1.485V9.515h3.984V6.109C5.469 2.156 7.891 0 11.422 0c1.687 0 3.141.125 3.563.187z"/></svg><svg data-name="Livello 1" viewBox="0 0 524 524" width="524" height="524" id="lens" y="56" xmlns="http://www.w3.org/2000/svg"><path d="M416.28 420l-87.36-93a154.4 154.4 0 0 0 38.4-102c0-85.49-69.55-155-155-155s-155 69.55-155 155 69.55 155 155 155a154.18 154.18 0 0 0 92.39-30.62l87.55 93.2a16.5 16.5 0 1 0 24-22.59zm-337-195c0-73.36 59.68-133 133-133s133 59.68 133 133-59.68 133-133 133S79.25 298.29 79.25 224.93z"/></svg><svg width="24" height="28" viewBox="0 0 24 28" id="share-alt" y="580" xmlns="http://www.w3.org/2000/svg"><path d="M19 16c2.766 0 5 2.234 5 5s-2.234 5-5 5-5-2.234-5-5a6.3 6.3 0 0 1 .031-.531l-5.625-2.812A4.994 4.994 0 0 1 0 14.001a4.994 4.994 0 0 1 8.406-3.656l5.625-2.812A5.907 5.907 0 0 1 14 7.002c0-2.766 2.234-5 5-5s5 2.234 5 5a4.994 4.994 0 0 1-8.406 3.656L9.969 13.47c.016.172.031.359.031.531s-.016.359-.031.531l5.625 2.812A5.005 5.005 0 0 1 19 16z"/></svg><svg width="20" height="28" viewBox="0 0 20 28" id="user" y="608" xmlns="http://www.w3.org/2000/svg"><path d="M20 21.859C20 24.14 18.5 26 16.672 26H3.328C1.5 26 0 24.141 0 21.859 0 17.75 1.016 13 5.109 13a6.979 6.979 0 0 0 9.782 0C18.985 13 20 17.75 20 21.859zM16 8c0 3.313-2.688 6-6 6s-6-2.688-6-6 2.688-6 6-6 6 2.688 6 6z"/></svg><svg width="24" height="28" viewBox="0 0 24 28" id="whatsapp" y="636" xmlns="http://www.w3.org/2000/svg"><path d="M15.391 15.219c.266 0 2.812 1.328 2.922 1.516.031.078.031.172.031.234 0 .391-.125.828-.266 1.188-.359.875-1.813 1.437-2.703 1.437-.75 0-2.297-.656-2.969-.969-2.234-1.016-3.625-2.75-4.969-4.734-.594-.875-1.125-1.953-1.109-3.031v-.125c.031-1.031.406-1.766 1.156-2.469.234-.219.484-.344.812-.344.187 0 .375.047.578.047.422 0 .5.125.656.531.109.266.906 2.391.906 2.547 0 .594-1.078 1.266-1.078 1.625 0 .078.031.156.078.234.344.734 1 1.578 1.594 2.141.719.688 1.484 1.141 2.359 1.578a.681.681 0 0 0 .344.109c.469 0 1.25-1.516 1.656-1.516zM12.219 23.5c5.406 0 9.812-4.406 9.812-9.812s-4.406-9.812-9.812-9.812-9.812 4.406-9.812 9.812c0 2.063.656 4.078 1.875 5.75l-1.234 3.641 3.781-1.203a9.875 9.875 0 0 0 5.391 1.625zm0-21.594C18.719 1.906 24 7.187 24 13.687s-5.281 11.781-11.781 11.781c-1.984 0-3.953-.5-5.703-1.469L0 26.093l2.125-6.328a11.728 11.728 0 0 1-1.687-6.078c0-6.5 5.281-11.781 11.781-11.781z"/></svg><svg width="24" height="28" viewBox="0 0 24 28" id="youtube" y="664" xmlns="http://www.w3.org/2000/svg"><path d="M15.172 19.437v3.297c0 .703-.203 1.047-.609 1.047-.234 0-.469-.109-.703-.344v-4.703c.234-.234.469-.344.703-.344.406 0 .609.359.609 1.047zm5.281.016v.719h-1.406v-.719c0-.703.234-1.062.703-1.062s.703.359.703 1.062zM5.359 16.047h1.672v-1.469H2.156v1.469h1.641v8.891H5.36v-8.891zm4.5 8.891h1.391v-7.719H9.859v5.906c-.313.438-.609.656-.891.656-.187 0-.297-.109-.328-.328-.016-.047-.016-.219-.016-.547v-5.688H7.233v6.109c0 .547.047.906.125 1.141.125.391.453.578.906.578.5 0 1.031-.313 1.594-.953v.844zm6.703-2.313v-3.078c0-.719-.031-1.234-.141-1.547-.172-.578-.562-.875-1.109-.875-.516 0-1 .281-1.453.844v-3.391h-1.391v10.359h1.391v-.75c.469.578.953.859 1.453.859.547 0 .938-.297 1.109-.859.109-.328.141-.844.141-1.563zm5.282-.156v-.203h-1.422c0 .562-.016.875-.031.953-.078.375-.281.562-.625.562-.484 0-.719-.359-.719-1.078v-1.359h2.797v-1.609c0-.828-.141-1.422-.422-1.813-.406-.531-.953-.797-1.656-.797-.719 0-1.266.266-1.672.797-.297.391-.438.984-.438 1.813v2.703c0 .828.156 1.437.453 1.813.406.531.953.797 1.687.797s1.313-.281 1.687-.828a1.8 1.8 0 0 0 .328-.844c.031-.141.031-.453.031-.906zm-9.5-14.266V4.922c0-.719-.203-1.078-.672-1.078-.453 0-.672.359-.672 1.078v3.281c0 .719.219 1.094.672 1.094.469 0 .672-.375.672-1.094zm11.234 11.735c0 1.797-.016 3.719-.406 5.469-.297 1.234-1.297 2.141-2.5 2.266-2.875.328-5.781.328-8.672.328s-5.797 0-8.672-.328c-1.203-.125-2.219-1.031-2.5-2.266-.406-1.75-.406-3.672-.406-5.469 0-1.813.016-3.719.406-5.469.297-1.234 1.297-2.141 2.516-2.281 2.859-.313 5.766-.313 8.656-.313s5.797 0 8.672.313c1.203.141 2.219 1.047 2.5 2.281.406 1.75.406 3.656.406 5.469zM7.984 0h1.594L7.687 6.234v4.234H6.124V6.234c-.141-.766-.453-1.859-.953-3.313-.344-.969-.688-1.953-1.016-2.922h1.656L6.92 4.108zm5.782 5.203v2.734c0 .828-.141 1.453-.438 1.844-.391.531-.938.797-1.656.797-.703 0-1.25-.266-1.641-.797-.297-.406-.438-1.016-.438-1.844V5.203c0-.828.141-1.437.438-1.828.391-.531.938-.797 1.641-.797.719 0 1.266.266 1.656.797.297.391.438 1 .438 1.828zM19 2.672v7.797h-1.422V9.61c-.562.656-1.094.969-1.609.969-.453 0-.781-.187-.922-.578-.078-.234-.125-.609-.125-1.172V2.673h1.422v5.734c0 .328 0 .516.016.547.031.219.141.344.328.344.281 0 .578-.219.891-.672V2.673h1.422z"/></svg></svg>